<svg xmlns="http://www.w3.org/2000/svg" width="1200" height="1200" viewBox="0 0 1200 1200" role="img" aria-label="Evergreen WD logo">
  <defs>
    <linearGradient id="bg" x1="0" y1="0" x2="0" y2="1">
      <stop offset="0%" stop-color="#052126"/>
      <stop offset="100%" stop-color="#03151a"/>
    </linearGradient>
    <filter id="glow" x="-30%" y="-30%" width="160%" height="160%">
      <feGaussianBlur stdDeviation="5" result="b"/>
      <feMerge><feMergeNode in="b"/><feMergeNode in="SourceGraphic"/></feMerge>
    </filter>
  </defs>

  <rect width="1200" height="1200" rx="180" fill="#f8fafc"/>

  <g transform="translate(0,-220)">
  <g stroke="#0f766e" stroke-width="6" fill="none" stroke-linecap="round" stroke-linejoin="round" filter="url(#glow)">
    <path d="M600 880 L600 670"/>
    <path d="M578 880 L578 700"/>
    <path d="M622 880 L622 700"/>
    <path d="M556 880 L556 730"/>
    <path d="M644 880 L644 730"/>

    <path d="M600 700 C548 664,520 630,495 590"/>
    <path d="M495 590 C448 567,418 542,396 506"/>
    <path d="M495 590 C455 614,410 626,360 626"/>
    <path d="M452 648 C404 664,370 694,334 730"/>

    <path d="M600 700 C652 664,680 630,705 590"/>
    <path d="M705 590 C752 567,782 542,804 506"/>
    <path d="M705 590 C745 614,790 626,840 626"/>
    <path d="M748 648 C796 664,830 694,866 730"/>

    <path d="M600 638 C586 592,586 556,586 510"/>
    <path d="M600 638 C614 592,614 556,614 510"/>
    <path d="M586 510 C555 486,529 464,514 430"/>
    <path d="M614 510 C645 486,671 464,686 430"/>
    <path d="M564 488 C524 476,486 460,452 432"/>
    <path d="M636 488 C676 476,714 460,748 432"/>
  </g>

  <g fill="#0f766e" filter="url(#glow)">
    <circle cx="396" cy="506" r="7"/><circle cx="360" cy="626" r="7"/><circle cx="334" cy="730" r="7"/>
    <circle cx="804" cy="506" r="7"/><circle cx="840" cy="626" r="7"/><circle cx="866" cy="730" r="7"/>
    <circle cx="514" cy="430" r="7"/><circle cx="686" cy="430" r="7"/><circle cx="452" cy="432" r="7"/><circle cx="748" cy="432" r="7"/>
    <circle cx="586" cy="510" r="7"/><circle cx="614" cy="510" r="7"/>
  </g>

  <g stroke="#0f766e" stroke-width="8" filter="url(#glow)">
    <line x1="530" y1="910" x2="530" y2="942"/>
    <line x1="554" y1="910" x2="554" y2="942"/>
    <line x1="578" y1="910" x2="578" y2="942"/>
    <line x1="602" y1="910" x2="602" y2="942"/>
    <line x1="626" y1="910" x2="626" y2="942"/>
    <line x1="650" y1="910" x2="650" y2="942"/>
    <line x1="674" y1="910" x2="674" y2="942"/>
  </g>
  </g>

  <text x="600" y="980" text-anchor="middle" font-family="Inter,Arial,sans-serif" font-size="82" font-weight="800" fill="#0f172a">EVERGREEN</text>
  <text x="600" y="1048" text-anchor="middle" font-family="Inter,Arial,sans-serif" font-size="58" font-weight="900" fill="#ea580c" letter-spacing="5">WD</text>
</svg>