<svg xmlns="http://www.w3.org/2000/svg" width="1024" height="1024" viewBox="0 0 1024 1024" role="img" aria-label="Evergreen WD mono icon">
  <rect width="1024" height="1024" rx="120" fill="#0b1020"/>
  <g stroke="#ffffff" stroke-width="5" fill="none" stroke-linecap="round" stroke-linejoin="round">
    <path d="M512 820 L512 620"/><path d="M492 820 L492 640"/><path d="M532 820 L532 640"/><path d="M472 820 L472 670"/><path d="M552 820 L552 670"/>
    <path d="M512 620 C470 590,450 560,430 530"/><path d="M430 530 C390 510,365 490,345 460"/><path d="M430 530 C395 550,360 560,320 560"/>
    <path d="M392 580 C350 595,320 620,290 650"/><path d="M468 570 C440 540,418 515,405 480"/><path d="M405 480 C370 470,330 465,300 440"/><path d="M448 610 C420 620,390 640,360 670"/>
    <path d="M512 620 C554 590,574 560,594 530"/><path d="M594 530 C634 510,659 490,679 460"/><path d="M594 530 C629 550,664 560,704 560"/>
    <path d="M632 580 C674 595,704 620,734 650"/><path d="M556 570 C584 540,606 515,619 480"/><path d="M619 480 C654 470,694 465,724 440"/><path d="M576 610 C604 620,634 640,664 670"/>
    <path d="M512 560 C500 520,500 490,500 450"/><path d="M512 560 C524 520,524 490,524 450"/>
    <path d="M500 450 C474 430,452 410,440 380"/><path d="M524 450 C550 430,572 410,584 380"/><path d="M480 430 C445 420,412 406,382 382"/><path d="M544 430 C579 420,612 406,642 382"/>
  </g>
</svg>